<svg width="24" height="17" viewBox="0 0 24 17" fill="none" xmlns="http://www.w3.org/2000/svg">
<path d="M12.0765 -0.00146484H12.21C13.443 0.00303515 19.6905 0.0480354 21.375 0.501035C21.8842 0.639288 22.3483 0.908769 22.7207 1.28255C23.0932 1.65633 23.361 2.12131 23.4975 2.63103C23.649 3.20103 23.7555 3.95553 23.8275 4.73403L23.8425 4.89003L23.8755 5.28003L23.8875 5.43603C23.985 6.80703 23.997 8.09103 23.9985 8.37153V8.48403C23.997 8.77503 23.9835 10.146 23.8755 11.574L23.8635 11.7315L23.85 11.8875C23.775 12.7455 23.664 13.5975 23.4975 14.2245C23.3615 14.7345 23.0937 15.1997 22.7212 15.5735C22.3487 15.9473 21.8844 16.2167 21.375 16.3545C19.635 16.8225 13.0215 16.8555 12.105 16.857H11.892C11.4285 16.857 9.5115 16.848 7.5015 16.779L7.2465 16.77L7.116 16.764L6.8595 16.7535L6.603 16.743C4.938 16.6695 3.3525 16.551 2.622 16.353C2.11273 16.2153 1.6486 15.9462 1.27609 15.5726C0.903575 15.1991 0.63577 14.7342 0.4995 14.2245C0.333 13.599 0.222 12.7455 0.147 11.8875L0.135 11.73L0.123 11.574C0.0489714 10.5576 0.0079498 9.53909 0 8.52003L0 8.33553C0.003 8.01303 0.015 6.89853 0.096 5.66853L0.1065 5.51403L0.111 5.43603L0.123 5.28003L0.156 4.89003L0.171 4.73403C0.243 3.95553 0.3495 3.19953 0.501 2.63103C0.63704 2.12111 0.904743 1.6559 1.27727 1.28206C1.6498 0.908216 2.11405 0.638874 2.6235 0.501035C3.354 0.306035 4.9395 0.186035 6.6045 0.111035L6.8595 0.100535L7.1175 0.0915354L7.2465 0.0870353L7.503 0.0765354C8.93056 0.0305972 10.3587 0.00509445 11.787 3.52259e-05H12.0765V-0.00146484ZM9.6 4.81353V12.0405L15.8355 8.42853L9.6 4.81353Z" fill="#1F2937"/>
</svg>
